<?xml version="1.0" encoding="UTF-8" standalone="no"?><!DOCTYPE svg PUBLIC "-//W3C//DTD SVG 1.1//EN" "http://www.w3.org/Graphics/SVG/1.1/DTD/svg11.dtd"><svg width="100%" height="100%" viewBox="0 0 24 24" version="1.1" xmlns="http://www.w3.org/2000/svg" xmlns:xlink="http://www.w3.org/1999/xlink" xml:space="preserve" xmlns:serif="http://www.serif.com/" style="fill-rule:evenodd;clip-rule:evenodd;stroke-linejoin:round;stroke-miterlimit:2;"><rect x="0" y="0" width="24" height="24" style="fill:#fff;"/><g><rect id="c" x="2.294" y="2.294" width="19.411" height="19.411" style="fill:none;fill-rule:nonzero;"/><path d="M18.121,16.135c0.062,1.93 -1.202,3.463 -3.044,3.859c-0.273,0.187 -7.45,0.068 -7.966,0.099l-0,-15.977c1.042,0.077 7.111,-0.216 7.966,0.235c3.349,1.089 3.509,6.451 0,7.477c-0.34,0.136 -0.636,0.23 -0.79,0.276c1.996,0.091 3.896,1.822 3.835,4.029l-0.001,0.002Z" style="fill:#120b2c;fill-rule:nonzero;"/><path d="M17.733,8.075l-2.657,0l0,-3.724c1.534,0.55 2.635,2.007 2.657,3.724Z" style="fill-rule:nonzero;"/><path d="M17.734,8.127c0,1.108 -0.449,2.109 -1.175,2.835c-0.367,0.368 -0.973,0.664 -1.483,0.866l0,-3.753l2.657,0l-0,0.052l0.001,-0Z" style="fill:#120b2c;fill-rule:nonzero;"/><rect x="7.048" y="8.075" width="3.977" height="4.03" style="fill:#382080;"/><rect x="7.048" y="12.105" width="3.977" height="4.03" style="fill:#492aab;"/><path d="M18.184,16.135l-3.107,-0l0,-3.897c1.777,0.409 3.102,1.997 3.107,3.897Z" style="fill:#241654;fill-rule:nonzero;"/><path d="M18.184,16.135l0,0.011c0,1.108 -0.385,2.046 -1.111,2.772c-0.526,0.526 -1.228,0.905 -1.997,1.076l0,-3.859l3.108,-0Z" style="fill:#382080;fill-rule:nonzero;"/><path d="M15.076,16.135l0,3.859c-0.294,0.064 -0.597,0.099 -0.903,0.099l-3.15,0l-0,-3.958l4.053,-0Z" style="fill:#492aab;fill-rule:nonzero;"/><rect x="7.048" y="16.135" width="3.977" height="3.959" style="fill:#5b35d6;"/><path d="M15.076,8.074l0,3.754c-0.34,0.136 -0.637,0.23 -0.791,0.276l-3.261,-0l0,-4.03l4.052,-0Z" style="fill:#241654;fill-rule:nonzero;"/><path d="M15.076,12.239l0,3.897l-4.052,-0l0,-4.03l3.261,0c-0.071,0.022 0.501,0.067 0.791,0.135l0,-0.002Z" style="fill:#382080;fill-rule:nonzero;"/><rect x="7.048" y="4.116" width="3.977" height="3.959" style="fill:#241654;"/></g></svg>