<?xml version="1.0" encoding="UTF-8" standalone="no"?>
<!DOCTYPE svg PUBLIC "-//W3C//DTD SVG 1.1//EN" "http://www.w3.org/Graphics/SVG/1.1/DTD/svg11.dtd">
<svg width="100%" height="100%" viewBox="0 0 24 24" version="1.1" xmlns="http://www.w3.org/2000/svg" xmlns:xlink="http://www.w3.org/1999/xlink" xml:space="preserve" xmlns:serif="http://www.serif.com/" style="fill-rule:evenodd;clip-rule:evenodd;stroke-linejoin:round;stroke-miterlimit:2;">
    <rect x="0" y="0" width="24" height="24" style="fill:rgb(235,235,235);"/>
    <g transform="matrix(0.0096,0,0,0.0247538,2.4869e-14,-0.00573329)">
        <rect x="0" y="0.232" width="2500" height="969.55" style="fill:rgb(40,0,215);fill-rule:nonzero;"/>
    </g>
    <g transform="matrix(0.00764246,0,0,0.00764246,2.44693,8.17857)">
        <path d="M0,269.701L183.282,269.701C218.192,269.701 244.375,278.429 263.77,292.975C285.105,310.43 296.742,335.644 296.742,366.675C296.742,402.556 282.196,424.86 253.103,438.436L253.103,440.376C291.893,452.983 314.197,487.893 314.197,529.592C314.197,569.352 298.681,600.384 273.468,619.779C252.133,635.294 224.981,642.083 188.13,642.083L0,642.083L0,269.701ZM164.856,415.163C184.251,415.163 198.798,404.495 198.798,382.191C198.798,360.857 184.251,350.19 163.887,350.19L100.853,350.19L100.853,414.193L164.856,414.193L164.856,415.163ZM173.584,559.654C195.888,559.654 212.374,546.078 212.374,521.834C212.374,495.651 194.919,484.014 173.584,484.014L101.823,484.014L101.823,560.624L173.584,560.624L173.584,559.654ZM330.683,269.701L426.687,269.701L426.687,643.052L330.683,643.052L330.683,269.701ZM446.082,510.197C446.082,425.83 500.388,369.585 584.756,369.585C669.123,369.585 722.459,426.799 722.459,510.197C722.459,594.565 669.123,650.81 584.756,650.81C500.388,650.81 446.082,594.565 446.082,510.197ZM626.455,510.197C626.455,463.65 611.908,434.557 582.816,434.557C553.724,434.557 540.147,463.65 540.147,510.197C540.147,556.745 553.724,586.807 582.816,586.807C611.908,585.837 626.455,556.745 626.455,510.197ZM733.126,510.197C733.126,425.83 787.432,369.585 871.8,369.585C956.168,369.585 1008.53,425.83 1008.53,510.197C1008.53,594.565 955.198,650.81 870.83,650.81C787.432,650.81 733.126,594.565 733.126,510.197ZM913.499,510.197C913.499,463.65 898.953,434.557 869.86,434.557C840.768,434.557 827.192,463.65 827.192,510.197C827.192,556.745 840.768,586.807 869.86,586.807C898.953,585.837 913.499,556.745 913.499,510.197ZM1027.93,376.373L1117.14,376.373L1117.14,416.132L1119.09,416.132C1136.54,385.1 1160.78,368.615 1199.57,368.615C1233.51,368.615 1258.73,385.1 1271.33,414.193L1273.27,414.193C1294.61,379.282 1322.73,368.615 1355.7,368.615C1417.77,368.615 1443.95,414.193 1443.95,475.287L1443.95,642.083L1350.85,642.083L1350.85,491.772C1350.85,464.619 1342.13,447.164 1318.85,447.164C1295.58,447.164 1283.94,468.498 1283.94,497.591L1283.94,642.083L1190.85,642.083L1190.85,491.772C1190.85,464.619 1182.12,447.164 1158.84,447.164C1135.57,447.164 1123.93,468.498 1123.93,497.591L1123.93,642.083L1027.93,642.083L1027.93,376.373ZM1561.29,607.172L1560.32,607.172L1560.32,642.083L1471.1,642.083L1471.1,269.701L1564.2,269.701L1564.2,403.526L1566.14,403.526C1583.59,380.252 1607.84,367.645 1641.78,367.645C1708.69,367.645 1747.48,427.769 1747.48,508.258C1747.48,598.444 1705.78,650.81 1635.96,650.81C1606.87,650.81 1576.8,637.234 1561.29,607.172ZM1651.47,507.288C1651.47,464.619 1635.96,436.497 1607.84,436.497C1578.74,436.497 1561.29,464.619 1561.29,507.288C1561.29,549.957 1579.71,578.08 1607.84,578.08C1635.96,578.08 1651.47,550.927 1651.47,507.288ZM1758.15,509.228C1758.15,425.83 1813.42,368.615 1892.94,368.615C1932.7,368.615 1962.76,381.221 1986.04,403.526C2017.07,433.588 2030.64,480.135 2029.67,534.441L1851.24,534.441C1855.12,567.412 1870.64,584.868 1898.76,584.868C1915.24,584.868 1929.79,577.11 1935.61,559.654L2025.8,559.654C2010.28,620.748 1962.76,650.81 1895.85,650.81C1813.42,649.841 1758.15,593.595 1758.15,509.228ZM1851.24,481.105L1936.58,481.105C1934.64,449.104 1917.18,432.618 1894.88,432.618C1868.7,431.648 1854.15,450.073 1851.24,481.105ZM2135.38,421.951L2137.32,421.951C2156.71,385.1 2181.92,370.554 2213.93,370.554C2221.68,370.554 2226.53,371.524 2229.44,373.464L2229.44,454.922L2227.5,454.922C2172.23,445.225 2140.22,471.408 2140.22,531.532L2140.22,643.052L2046.16,643.052L2046.16,376.373L2135.38,376.373L2135.38,421.951ZM2239.14,643.052L2329.33,643.052C2333.2,654.689 2344.84,665.356 2367.14,665.356C2397.21,665.356 2407.87,646.931 2407.87,618.809L2407.87,599.414L2405.93,599.414C2391.39,616.869 2371.02,629.476 2341.93,629.476C2284.72,629.476 2234.29,586.807 2234.29,503.409C2234.29,426.799 2275.02,367.645 2337.08,367.645C2372.96,367.645 2394.3,382.191 2408.84,404.495L2410.78,404.495L2410.78,375.403L2500,375.403L2500,606.202C2500,648.871 2485.45,681.842 2463.15,701.237C2439.88,721.602 2406.91,730.329 2369.09,730.329C2297.32,731.299 2247.87,702.207 2239.14,643.052ZM2411.75,499.53C2411.75,466.559 2396.24,439.406 2369.09,439.406C2342.9,439.406 2326.42,462.68 2326.42,499.53C2326.42,535.411 2342.9,560.624 2369.09,560.624C2395.27,560.624 2411.75,534.441 2411.75,499.53Z" style="fill:white;fill-rule:nonzero;"/>
    </g>
</svg>
