<?xml version="1.0" encoding="UTF-8" standalone="no"?><!DOCTYPE svg PUBLIC "-//W3C//DTD SVG 1.1//EN" "http://www.w3.org/Graphics/SVG/1.1/DTD/svg11.dtd"><svg width="100%" height="100%" viewBox="0 0 24 24" version="1.1" xmlns="http://www.w3.org/2000/svg" xmlns:xlink="http://www.w3.org/1999/xlink" xml:space="preserve" xmlns:serif="http://www.serif.com/" style="fill-rule:evenodd;clip-rule:evenodd;stroke-linejoin:round;stroke-miterlimit:2;"><rect x="0" y="0" width="24" height="24" style="fill:#ebebeb;"/><g><rect x="0" y="0" width="24" height="24" style="fill:#fdc904;"/><g id="Atoms_x2F_Icons_x2F_logos_x2F_CT-GY-icon"><g id="Group"><path id="Shape" d="M13.542,15.819l-2.988,1.303l-0,-0.132c-0.574,0.144 -1.22,0.228 -1.817,0.263c-2.821,-0.023 -5.044,-1.506 -5.08,-3.251l-0,-0.645c0.92,1.338 2.809,2.247 5.08,2.211c0.765,0.036 1.554,-0.084 2.211,-0.263l0.263,-0.645c-0.777,0.239 -1.637,0.394 -2.474,0.394c-2.821,0 -5.044,-1.47 -5.08,-3.251l-0,-0.526c0.92,1.243 2.809,2.14 5.08,2.08c1.028,0.06 2.02,-0.156 2.869,-0.526l0.131,-0.646c-0.825,0.431 -1.889,0.682 -2.988,0.646c-2.821,0.036 -5.044,-1.435 -5.08,-3.251l-0,-0.526c0.92,1.267 2.809,2.175 5.08,2.211c1.291,-0.036 2.51,-0.383 3.514,-0.908l0.131,-0.777c-0.908,0.669 -2.235,1.111 -3.645,1.171c-2.821,-0.06 -5.044,-1.542 -5.08,-3.383c0.024,-1.757 2.259,-3.227 5.08,-3.251c1.673,0.024 3.239,0.61 4.159,1.566l0.096,0.155l0.657,0l-0.095,-0.155c-0.921,-1.255 -2.773,-2.08 -4.817,-2.08c-3.132,-0.012 -5.618,1.697 -5.618,3.753l-0,6.766c0.107,2.008 2.534,3.645 5.594,3.645c2.02,0.012 3.849,-0.788 4.817,-1.948Z" style="fill-rule:nonzero;"/><path id="Shape_1_" d="M12.323,20.397l1.052,-4.47l-3.025,1.314l1.841,-7.745l-3.538,-0l0.921,-3.813l11.295,-0l-0.92,3.813l-3.682,-0l-0.789,2.104l4.076,-1.71l-7.231,10.507Zm1.841,-5.379l-0.526,2.63l4.339,-6.562l-3.551,1.577l1.578,-3.681l3.55,-0l0.658,-2.761l-10.256,-0l-0.657,2.761l3.55,-0l-1.71,7.351l3.025,-1.315Z" style="fill-rule:nonzero;"/></g></g></g></svg>