<?xml version="1.0" encoding="UTF-8" standalone="no"?>
<!DOCTYPE svg PUBLIC "-//W3C//DTD SVG 1.1//EN" "http://www.w3.org/Graphics/SVG/1.1/DTD/svg11.dtd">
<svg width="100%" height="100%" viewBox="0 0 24 24" version="1.1" xmlns="http://www.w3.org/2000/svg" xmlns:xlink="http://www.w3.org/1999/xlink" xml:space="preserve" xmlns:serif="http://www.serif.com/" style="fill-rule:evenodd;clip-rule:evenodd;stroke-linejoin:round;stroke-miterlimit:2;">
    <rect x="0" y="0" width="24" height="24" style="fill:rgb(235,235,235);"/>
    <g transform="matrix(0.0096,0,0,0.0247538,2.4869e-14,-0.00573329)">
        <rect x="0" y="0.232" width="2500" height="969.55" style="fill:rgb(248,191,30);fill-rule:nonzero;"/>
    </g>
    <g transform="matrix(0.202862,0,0,0.213196,4.46142,4.03338)">
        <path d="M37.154,40.701C39.035,40.701 40.559,39.173 40.559,37.289C40.559,35.405 39.035,33.877 37.154,33.877C35.274,33.877 33.749,35.405 33.749,37.289C33.749,39.173 35.274,40.701 37.154,40.701Z" style="fill:white;fill-rule:nonzero;"/>
        <path d="M64.307,40.701C66.187,40.701 67.712,39.173 67.712,37.289C67.712,35.405 66.187,33.877 64.307,33.877C62.426,33.877 60.901,35.405 60.901,37.289C60.901,39.173 62.426,40.701 64.307,40.701Z" style="fill:white;fill-rule:nonzero;"/>
        <path d="M64.307,67.952C66.187,67.952 67.712,66.424 67.712,64.54C67.712,62.655 66.187,61.128 64.307,61.128C62.426,61.128 60.901,62.655 60.901,64.54C60.901,66.424 62.426,67.952 64.307,67.952Z" style="fill:white;fill-rule:nonzero;"/>
        <path d="M74.298,9.409C73.939,4.426 69.952,0.386 64.978,0.027C61.797,-0.198 58.929,1.014 56.913,3.079C55.39,4.651 53.329,5.593 51.133,5.593L50.327,5.593C48.087,5.593 45.981,4.651 44.413,3.035C42.576,1.149 40.022,0.027 37.199,0.027C34.376,0.027 31.822,1.194 29.985,3.035C28.417,4.651 26.311,5.593 24.071,5.593L23.309,5.593C21.114,5.593 19.008,4.74 17.485,3.169C17.171,2.855 16.857,2.541 16.544,2.271C12.735,-0.826 7.135,-0.737 3.461,2.541C-0.975,6.446 -1.154,13.27 2.968,17.401C3.013,17.446 3.057,17.49 3.102,17.535C4.715,19.062 5.566,21.217 5.566,23.417L5.566,24.18C5.566,26.424 4.626,28.534 3.013,30.106C1.131,31.946 0.011,34.505 0.011,37.334C0.011,40.162 1.175,42.721 3.013,44.562C4.626,46.133 5.566,48.243 5.566,50.488L5.566,51.52C5.566,53.72 4.626,55.785 3.057,57.312C1.086,59.242 -0.124,61.981 0.011,64.989C0.235,70.286 4.536,74.551 9.778,74.731C12.825,74.82 15.558,73.608 17.485,71.588C19.008,70.017 21.069,69.029 23.265,69.029L24.116,69.029C26.311,69.029 28.372,69.972 29.896,71.588C31.912,73.698 34.824,74.91 38.006,74.686C42.979,74.327 47.011,70.286 47.37,65.258C47.773,59.287 43.113,54.349 37.244,54.349C34.466,54.349 31.912,55.471 30.075,57.312C28.507,58.883 26.401,59.826 24.205,59.826L23.265,59.826C21.069,59.826 18.918,58.973 17.35,57.356C17.305,57.312 17.305,57.312 17.261,57.267C15.648,55.695 14.707,53.585 14.707,51.341L14.707,50.443C14.707,48.198 15.648,46.088 17.261,44.517C19.142,42.676 20.263,40.117 20.263,37.289C20.263,34.461 19.098,31.901 17.261,30.061C15.648,28.49 14.707,26.38 14.707,24.135L14.707,23.327C14.707,21.082 15.648,18.972 17.216,17.401C17.261,17.356 17.261,17.356 17.305,17.311C17.35,17.266 17.35,17.266 17.395,17.221C18.963,15.65 21.069,14.707 23.309,14.707L24.116,14.707C26.356,14.707 28.462,15.65 30.03,17.266C31.867,19.152 34.421,20.274 37.244,20.274C40.067,20.274 42.62,19.107 44.457,17.266C46.026,15.65 48.132,14.707 50.372,14.707L51.089,14.707C53.329,14.707 55.435,15.65 57.003,17.266C58.84,19.152 61.394,20.274 64.217,20.274C70.041,20.319 74.701,15.38 74.298,9.409Z" style="fill:white;fill-rule:nonzero;"/>
    </g>
</svg>
