<?xml version="1.0" encoding="UTF-8" standalone="no"?><!DOCTYPE svg PUBLIC "-//W3C//DTD SVG 1.1//EN" "http://www.w3.org/Graphics/SVG/1.1/DTD/svg11.dtd"><svg width="100%" height="100%" viewBox="0 0 24 24" version="1.1" xmlns="http://www.w3.org/2000/svg" xmlns:xlink="http://www.w3.org/1999/xlink" xml:space="preserve" xmlns:serif="http://www.serif.com/" style="fill-rule:evenodd;clip-rule:evenodd;stroke-linejoin:round;stroke-miterlimit:2;"><rect x="0" y="0" width="24" height="24" style="fill:#ebebeb;"/><g><rect x="0" y="0" width="24" height="24" style="fill:#3259a5;"/></g><g><circle cx="12" cy="12" r="12" style="fill:#3259a5;"/><path d="M16.139,12.783c-0.367,1.942 -2.071,3.411 -4.12,3.411c-2.317,0 -4.194,-1.877 -4.194,-4.194c-0,-2.317 1.877,-4.194 4.194,-4.194c2.049,-0 3.753,1.47 4.12,3.411l4.232,0c-0.395,-4.265 -3.983,-7.605 -8.352,-7.605c-4.633,-0 -8.388,3.756 -8.388,8.388c-0,4.633 3.756,8.388 8.388,8.388c4.369,0 7.957,-3.34 8.352,-7.605l-4.232,-0Z" style="fill:#fff;fill-rule:nonzero;"/></g></svg>