<?xml version="1.0" encoding="UTF-8" standalone="no"?>
<!DOCTYPE svg PUBLIC "-//W3C//DTD SVG 1.1//EN" "http://www.w3.org/Graphics/SVG/1.1/DTD/svg11.dtd">
<svg width="100%" height="100%" viewBox="0 0 24 24" version="1.1" xmlns="http://www.w3.org/2000/svg" xmlns:xlink="http://www.w3.org/1999/xlink" xml:space="preserve" xmlns:serif="http://www.serif.com/" style="fill-rule:evenodd;clip-rule:evenodd;stroke-linejoin:round;stroke-miterlimit:2;">
    <rect x="0" y="0" width="24" height="24" style="fill:rgb(235,235,235);"/>
    <g transform="matrix(0.0096,0,0,0.0247538,2.4869e-14,-0.00573329)">
        <rect x="0" y="0.232" width="2500" height="969.55" style="fill:rgb(221,221,221);fill-rule:nonzero;"/>
    </g>
    <g transform="matrix(0.0808142,0,0,0.0808142,-3.04939,-12.2307)">
        <path d="M185.2,201.7C167.3,203.9 147.6,213.1 130.8,227.3C127.4,230.1 120.3,237 120.3,237.4C120.3,237.6 123.7,241.2 127.9,245.4L135.5,253.1L132.3,256.7C120.5,270 112.5,283.5 107.7,297.8C104.7,306.8 103.4,314.2 103.4,322.5C103.4,330 104.4,336.1 106.7,342L107.6,344.4L129.9,366.7C148.5,385.3 152.7,389.3 155,390.8C159.8,394 165.4,396.2 171.6,397.5C175.7,398.4 185.2,398.7 189.7,398.1C207.5,395.9 225.9,387.5 242,374.1C246.2,370.6 253.3,363.9 253.3,363.5C253.3,363.3 249.8,359.7 245.6,355.4L237.9,347.6L240.3,345.1C246.2,338.9 253.4,329 257.6,321.2C263.6,310.3 267.5,298.5 268.8,287.7C269.3,283 269,273 268.2,269.2C266.8,262.8 264.6,257.6 261.3,252.6C259.6,250 256.2,246.5 237.4,227.6L215.4,205.6L213.1,204.7C210,203.4 203.6,201.9 199.7,201.5C195.8,201.1 189.7,201.2 185.2,201.7ZM204.1,207.6C205.7,208 208.3,208.6 209.7,209.1C212.3,210 212.4,210 216.5,214.1C220.1,217.7 220.6,218.2 219.7,218.1C214.9,217.2 207.2,217 201.2,217.8C182,220.2 162.2,229.9 144,245.9C142.2,247.5 140.6,248.9 140.3,249.1C140,249.3 138.4,248 133.7,243.3L127.5,237.1L131.5,233.6C148.2,219 166.6,209.8 184.6,207.2C189.4,206.5 200.1,206.8 204.1,207.6ZM230.3,239.4C239.1,240.7 246.8,244.5 252.5,250.2C258.1,255.8 261.7,263 263.4,272C264.1,276 264.1,285 263.4,289.7C261.1,304.2 254.4,319.1 244,332.7C241.6,335.9 235.9,342.6 235,343.3C234.5,343.7 233.9,343.2 228.7,338C225.5,334.8 222.9,332.1 222.9,332C222.9,331.9 223.8,330.8 224.9,329.6C243,309.6 251.5,284.6 245.5,269.1C243.1,263.1 238.1,258.6 231.6,256.6C228.3,255.6 222.5,255.1 218.2,255.6C211.6,256.2 203.5,258.8 195.7,262.6C187.9,266.4 180.8,271.2 173.9,277.4L170.8,280.1L159,268.3L161.5,266C176.8,251.7 197.1,241.5 214.5,239.2C218,238.9 227,238.9 230.3,239.4ZM147.6,273.9C145.4,276.4 142.6,279.9 141.2,281.7C124.6,303.8 117,327.8 120.1,348.5L120.3,349.8L116.2,345.8C112.3,342 112.1,341.7 111.3,339.3C103.5,316.9 113.3,286 136.4,260.1L139.1,257.1L151.5,269.5L147.6,273.9ZM225.7,261.1L226.5,261.3L226.3,265.5C226.1,270.5 225.4,274.6 224.4,278.1C221.2,288.6 215.3,299.1 206.7,309L203.4,312.8L190.8,300.2L193.7,297C199.9,290.2 205.6,282.3 209.1,275.6C211,272 213.5,265.9 214.2,263.1C214.6,261.4 214.6,261.4 216.1,261.2C216.9,261.1 217.8,261 218.1,260.9C218.9,260.9 225,260.9 225.7,261.1ZM207.8,265.5C206.4,269.4 203.3,275.4 200.3,279.9C197,284.9 194.7,287.9 190.1,293.1L186.9,296.8L174.3,284.2L176.4,282.3C182.9,276.5 190.5,271.3 197.5,267.7C201.3,265.8 207.5,263.3 208.4,263.2C208.5,263.2 208.3,264.2 207.8,265.5ZM176.6,294.1C182,299.5 182.3,299.9 181.9,300.5C181.6,300.8 180.3,302.3 178.9,303.9C173.3,310.3 168.1,318.1 164.6,325.3C162.1,330.4 160.6,334.6 159.1,340.3C157.2,347.8 157.2,356.1 159.3,361.9C163.2,372.9 173.5,378.1 187.9,376.4C201.8,374.7 217.8,366.7 231.5,354.6L234.4,352L246.2,363.8L243.7,366.1C230.9,378 213.8,387.7 199,391.3C193,392.8 188.8,393.3 183.1,393.3C175.5,393.3 169.9,392.3 164,389.7C156.4,386.4 149.4,379.9 145.8,372.7C141.3,363.8 140,352.8 142,340.9C144.8,324.3 154.1,306.5 167.8,291.2C169.2,289.6 170.5,288.3 170.6,288.3C170.7,288.3 173.4,290.9 176.6,294.1ZM196.2,318.6C188,326.3 177.5,333.2 168.8,336.7C167,337.4 165.4,338 165.3,338C165.2,338 165.6,336.9 166.1,335.5C169.9,325 176.5,314.3 184.4,305.8L186.3,303.8L198.9,316.2L196.2,318.6ZM208.8,326.4L214.9,332.5L213,334.3C203,343.7 187.6,352.2 176.7,354.5C174,355.1 168,355.7 165.1,355.7L163.2,355.7L163.2,351.1C163.2,348.6 163.3,345.9 163.4,345.3L163.6,344.1L167.5,342.8C177.4,339.6 190,331.7 199.3,322.9C200.8,321.5 202.2,320.3 202.4,320.3C202.6,320.3 205.5,323 208.8,326.4Z" style="fill:rgb(29,29,27);"/>
    </g>
</svg>
