<?xml version="1.0" encoding="UTF-8" standalone="no"?>
<!DOCTYPE svg PUBLIC "-//W3C//DTD SVG 1.1//EN" "http://www.w3.org/Graphics/SVG/1.1/DTD/svg11.dtd">
<svg width="100%" height="100%" viewBox="0 0 24 24" version="1.1" xmlns="http://www.w3.org/2000/svg" xmlns:xlink="http://www.w3.org/1999/xlink" xml:space="preserve" xmlns:serif="http://www.serif.com/" style="fill-rule:evenodd;clip-rule:evenodd;stroke-linejoin:round;stroke-miterlimit:2;">
    <rect x="0" y="0" width="24" height="24" style="fill:rgb(235,235,235);"/>
    <g transform="matrix(0.0096,0,0,0.0247538,2.4869e-14,-0.00573329)">
        <rect x="0" y="0.232" width="2500" height="969.55" style="fill:white;fill-rule:nonzero;"/>
    </g>
    <g transform="matrix(0.822621,0,0,0.822621,2.12855,2.10457)">
        <g transform="matrix(0.0096,0,0,0.0096,0.0169014,8.4336)">
            <path d="M422.264,536.993L621.328,0.021L817.775,0.021L622.352,536.993L422.264,536.993Z" style="fill:url(#_Linear1);fill-rule:nonzero;"/>
        </g>
        <g transform="matrix(0.0096,0,0,0.0096,0.0169014,8.4336)">
            <path d="M632.042,512.345L818.662,0.021L816.901,0.021L630.282,510.585C625,524.669 612.676,535.232 596.831,536.993C612.676,536.993 626.761,526.43 632.042,512.345" style="fill:rgb(147,149,152);fill-rule:nonzero;"/>
        </g>
        <g transform="matrix(0.0096,0,0,0.0096,0.0169014,8.4336)">
            <clipPath id="_clip2">
                <path d="M220.07,179.599C204.225,179.599 191.901,188.401 186.62,202.486L0,714.81L197.183,714.81L383.803,202.486C389.085,188.401 403.169,179.599 417.254,179.599L220.07,179.599Z"/>
            </clipPath>
            <g clip-path="url(#_clip2)">
                <path d="M612.676,179.599L417.254,714.81L-195.423,714.81L0,179.599L612.676,179.599Z" style="fill:url(#_Linear3);fill-rule:nonzero;"/>
            </g>
        </g>
        <g transform="matrix(0.0096,0,0,0.0096,0.0169014,8.4336)">
            <clipPath id="_clip4">
                <path d="M383.803,202.486L318.662,380.303L366.197,512.345C371.479,526.43 385.563,535.232 399.648,535.232C415.493,535.232 427.817,526.43 433.099,512.345L498.239,334.528L448.944,202.486C443.662,183.12 424.296,174.317 404.93,179.599C394.366,183.12 387.324,191.923 383.803,202.486"/>
            </clipPath>
            <g clip-path="url(#_clip4)">
                <rect x="318.662" y="179.599" width="179.577" height="357.394" style="fill:url(#_Linear5);fill-rule:nonzero;"/>
            </g>
        </g>
        <g transform="matrix(0.0096,0,0,0.0096,0.0169014,8.4336)">
            <clipPath id="_clip6">
                <rect x="-1.761" y="0.021" width="2500" height="742.958"/>
            </clipPath>
            <g clip-path="url(#_clip6)">
                <path d="M184.859,202.486L-1.761,714.81L0,714.81L186.62,204.246C191.901,190.162 204.225,179.599 220.07,179.599C204.225,179.599 190.141,188.401 184.859,202.486" style="fill:rgb(188,190,192);fill-rule:nonzero;"/>
                <path d="M382.042,202.486L195.423,714.81L197.183,714.81L383.803,204.246C389.085,190.162 401.408,179.599 417.254,179.599C401.408,179.599 387.324,188.401 382.042,202.486" style="fill:rgb(147,149,152);fill-rule:nonzero;"/>
                <path d="M436.62,512.345L621.479,0.021L619.718,0.021L433.099,510.585C427.817,524.669 415.493,535.232 399.648,535.232C417.254,535.232 431.338,526.43 436.62,512.345" style="fill:rgb(188,190,192);fill-rule:nonzero;"/>
                <path d="M1850.35,544.035C1764.09,544.035 1709.51,492.979 1709.51,413.754C1709.51,329.246 1758.8,278.19 1838.03,278.19L1845.07,278.19C1859.15,278.19 1873.24,278.19 1887.32,279.951L1887.32,177.838L1943.66,177.838L1943.66,533.472C1913.73,540.514 1882.04,544.035 1850.35,544.035M1848.59,322.204C1794.01,322.204 1767.61,352.134 1767.61,411.993C1767.61,466.57 1799.3,500.021 1852.11,500.021C1862.68,500.021 1873.24,500.021 1889.09,498.261L1889.09,325.725C1875,323.965 1862.68,322.204 1848.59,322.204M1077.46,536.993L924.296,269.387L924.296,536.993L871.479,536.993L871.479,198.965L945.423,198.965L1098.59,463.049L1098.59,198.965L1153.17,198.965L1153.17,536.993L1077.46,536.993ZM1563.38,542.275C1535.21,542.275 1507.04,538.754 1478.87,533.472L1475.35,533.472L1475.35,485.937L1480.63,487.697C1505.28,494.739 1531.69,498.261 1556.34,498.261C1575.7,498.261 1621.48,494.739 1621.48,466.57C1621.48,441.923 1589.79,436.641 1565.14,431.359L1563.38,431.359L1549.3,426.077C1512.32,417.275 1471.83,401.43 1471.83,352.134C1471.83,302.838 1510.56,276.43 1577.47,276.43C1602.11,276.43 1626.76,278.19 1651.41,283.472L1660.21,285.232L1660.21,331.007L1654.93,331.007C1632.04,325.725 1607.39,323.965 1584.51,322.204C1558.1,322.204 1526.41,327.486 1526.41,350.373C1526.41,369.739 1552.82,375.021 1582.75,382.063C1625,390.866 1676.06,403.19 1676.06,459.528C1677.82,512.345 1635.56,542.275 1563.38,542.275M2103.87,542.275C2045.78,542.275 1991.2,531.711 1991.2,457.768C1991.2,376.782 2075.7,376.782 2125,376.782C2130.28,376.782 2153.17,378.542 2160.21,378.542C2160.21,332.768 2160.21,322.204 2093.31,322.204C2066.9,323.965 2038.73,325.725 2012.32,332.768L2007.04,332.768L2007.04,288.754L2010.56,288.754C2038.73,283.472 2068.66,279.951 2098.59,279.951C2161.97,279.951 2216.55,286.993 2216.55,366.218L2216.55,538.754L2213.03,538.754C2176.06,538.754 2140.85,540.514 2103.87,542.275M2123.24,415.514C2075.7,415.514 2045.78,422.556 2045.78,457.768C2045.78,498.261 2084.51,501.782 2119.72,501.782C2133.8,501.782 2156.69,500.021 2163.73,500.021L2163.73,417.275L2123.24,415.514M1311.62,542.275C1253.52,542.275 1198.94,531.711 1198.94,457.768C1198.94,376.782 1283.45,376.782 1332.75,376.782C1338.03,376.782 1360.91,378.542 1367.96,378.542C1367.96,332.768 1367.96,322.204 1301.06,322.204C1274.65,323.965 1246.48,325.725 1220.07,332.768L1214.79,332.768L1214.79,288.754L1218.31,288.754C1246.48,283.472 1276.41,279.951 1306.34,279.951C1369.72,279.951 1424.3,286.993 1424.3,366.218L1424.3,538.754L1420.78,538.754C1385.56,538.754 1348.59,540.514 1311.62,542.275M1330.99,415.514C1283.45,415.514 1253.52,422.556 1253.52,457.768C1253.52,498.261 1292.25,501.782 1327.46,501.782C1341.55,501.782 1364.44,500.021 1371.48,500.021L1371.48,417.275L1330.99,415.514M2441.9,651.43L2441.9,540.514C2427.82,542.275 2413.73,544.035 2399.65,544.035C2376.76,544.035 2353.87,538.754 2332.75,531.711C2290.49,514.106 2264.09,468.331 2264.09,410.232C2264.09,380.303 2271.13,327.486 2318.66,299.317C2346.83,283.472 2380.28,276.43 2413.73,279.951C2429.58,279.951 2448.94,281.711 2468.31,281.711L2500,283.472L2500,626.782L2441.9,651.43ZM2408.45,322.204C2350.35,322.204 2322.18,352.134 2322.18,408.472C2322.18,482.415 2366.2,498.261 2401.41,498.261C2415.49,498.261 2429.58,496.5 2441.9,494.739L2441.9,322.204L2408.45,322.204" style="fill:rgb(0,159,194);fill-rule:nonzero;"/>
            </g>
        </g>
    </g>
    <defs>
        <linearGradient id="_Linear1" x1="0" y1="0" x2="1" y2="0" gradientUnits="userSpaceOnUse" gradientTransform="matrix(193.225,-530.891,530.891,193.225,509.137,545.97)"><stop offset="0" style="stop-color:rgb(167,169,172);stop-opacity:1"/><stop offset="0.19" style="stop-color:rgb(222,223,224);stop-opacity:1"/><stop offset="0.23" style="stop-color:rgb(218,219,220);stop-opacity:1"/><stop offset="0.26" style="stop-color:rgb(207,208,209);stop-opacity:1"/><stop offset="0.3" style="stop-color:rgb(188,189,191);stop-opacity:1"/><stop offset="0.33" style="stop-color:rgb(161,163,165);stop-opacity:1"/><stop offset="0.36" style="stop-color:rgb(128,130,133);stop-opacity:1"/><stop offset="0.37" style="stop-color:rgb(140,142,144);stop-opacity:1"/><stop offset="0.41" style="stop-color:rgb(177,178,180);stop-opacity:1"/><stop offset="0.45" style="stop-color:rgb(206,207,208);stop-opacity:1"/><stop offset="0.49" style="stop-color:rgb(226,228,228);stop-opacity:1"/><stop offset="0.53" style="stop-color:rgb(239,240,240);stop-opacity:1"/><stop offset="0.57" style="stop-color:rgb(243,244,244);stop-opacity:1"/><stop offset="0.86" style="stop-color:rgb(234,235,236);stop-opacity:1"/><stop offset="0.96" style="stop-color:rgb(206,207,209);stop-opacity:1"/><stop offset="1" style="stop-color:rgb(186,188,190);stop-opacity:1"/></linearGradient>
        <linearGradient id="_Linear3" x1="0" y1="0" x2="1" y2="0" gradientUnits="userSpaceOnUse" gradientTransform="matrix(-198.908,546.444,-546.444,-198.908,302.63,183.161)"><stop offset="0" style="stop-color:rgb(186,188,190);stop-opacity:1"/><stop offset="0.03" style="stop-color:rgb(205,207,208);stop-opacity:1"/><stop offset="0.07" style="stop-color:rgb(226,227,228);stop-opacity:1"/><stop offset="0.1" style="stop-color:rgb(239,240,240);stop-opacity:1"/><stop offset="0.14" style="stop-color:rgb(243,244,244);stop-opacity:1"/><stop offset="0.17" style="stop-color:rgb(239,240,240);stop-opacity:1"/><stop offset="0.2" style="stop-color:rgb(228,229,229);stop-opacity:1"/><stop offset="0.23" style="stop-color:rgb(209,210,211);stop-opacity:1"/><stop offset="0.26" style="stop-color:rgb(182,184,185);stop-opacity:1"/><stop offset="0.29" style="stop-color:rgb(148,150,153);stop-opacity:1"/><stop offset="0.3" style="stop-color:rgb(128,130,133);stop-opacity:1"/><stop offset="0.33" style="stop-color:rgb(156,158,160);stop-opacity:1"/><stop offset="0.37" style="stop-color:rgb(185,186,188);stop-opacity:1"/><stop offset="0.4" style="stop-color:rgb(205,207,208);stop-opacity:1"/><stop offset="0.44" style="stop-color:rgb(218,219,220);stop-opacity:1"/><stop offset="0.47" style="stop-color:rgb(222,223,224);stop-opacity:1"/><stop offset="0.62" style="stop-color:rgb(203,204,206);stop-opacity:1"/><stop offset="0.86" style="stop-color:rgb(177,178,181);stop-opacity:1"/><stop offset="1" style="stop-color:rgb(167,169,172);stop-opacity:1"/></linearGradient>
        <linearGradient id="_Linear5" x1="0" y1="0" x2="1" y2="0" gradientUnits="userSpaceOnUse" gradientTransform="matrix(2.22954e-14,364.111,-364.111,2.22954e-14,407.762,178.252)"><stop offset="0" style="stop-color:rgb(0,159,194);stop-opacity:1"/><stop offset="0.33" style="stop-color:rgb(0,159,194);stop-opacity:1"/><stop offset="0.45" style="stop-color:rgb(34,171,201);stop-opacity:1"/><stop offset="0.94" style="stop-color:rgb(167,216,229);stop-opacity:1"/><stop offset="1" style="stop-color:rgb(167,216,229);stop-opacity:1"/></linearGradient>
    </defs>
</svg>
