<?xml version="1.0" encoding="UTF-8" standalone="no"?>
<!DOCTYPE svg PUBLIC "-//W3C//DTD SVG 1.1//EN" "http://www.w3.org/Graphics/SVG/1.1/DTD/svg11.dtd">
<svg width="100%" height="100%" viewBox="0 0 24 24" version="1.1" xmlns="http://www.w3.org/2000/svg" xmlns:xlink="http://www.w3.org/1999/xlink" xml:space="preserve" xmlns:serif="http://www.serif.com/" style="fill-rule:evenodd;clip-rule:evenodd;stroke-linejoin:round;stroke-miterlimit:2;">
    <rect x="0" y="0" width="24" height="24" style="fill:rgb(235,235,235);"/>
    <g transform="matrix(0.0096,0,0,0.0247538,2.4869e-14,-0.00573329)">
        <rect x="0" y="0.232" width="2500" height="969.55" style="fill:rgb(255,107,62);"/>
    </g>
    <g transform="matrix(0.00835199,0,0,0.00835199,1.55997,9.00163)">
        <path d="M1138.48,478.587L1097.34,478.587C1093.65,478.587 1092.27,475.176 1090.61,471.866L1042.07,390.163L1034.62,390.163C1025.83,390.163 998.595,389.206 990.847,388.777L990.847,471.866C990.847,475.545 988.124,478.587 984.405,478.587L950.719,478.587C947.04,478.565 944.019,475.545 943.997,471.866L943.997,251.051C943.997,244.29 947.986,241.936 954.767,240.939C972.318,238.236 1009.98,236.571 1034.62,236.571C1086.49,236.571 1134.42,255.109 1134.42,312.719L1134.42,315.76C1134.42,351.441 1116.57,370.967 1088.94,381.687L1141.81,471.866C1142.5,472.883 1142.5,473.83 1142.5,474.588C1142.51,476.872 1141.17,478.587 1138.48,478.587ZM1087.93,312.719C1087.93,287.449 1068.32,276.679 1034.62,276.679C1027.53,276.679 996.87,277.347 990.847,278.006L990.847,351.082C996.182,351.411 1028.83,352.099 1034.62,352.099C1069.29,352.099 1087.93,345.398 1087.93,315.76L1087.93,312.719ZM1232.34,412.212C1232.34,440.473 1233.43,441.211 1258.91,441.211L1344.2,441.211C1347.9,441.222 1350.94,444.255 1350.96,447.952L1350.96,469.472C1350.96,474.229 1349.27,475.914 1344.2,476.563C1333.43,478.258 1311.48,481.259 1271.41,481.259C1215.49,481.259 1185.81,481.648 1185.81,412.212L1185.81,305.609C1185.81,236.192 1215.49,236.581 1271.41,236.581C1311.48,236.581 1333.43,239.623 1344.2,241.288C1349.27,241.936 1350.96,243.651 1350.96,248.378L1350.96,269.908C1350.96,273.588 1347.92,276.689 1344.2,276.689L1258.91,276.689C1233.43,276.689 1232.34,277.437 1232.34,305.609L1232.34,336.523L1340.17,336.523C1343.85,336.539 1346.88,339.545 1346.92,343.224L1346.92,367.546C1346.89,371.234 1343.86,374.256 1340.17,374.277L1232.34,374.277L1232.34,412.212ZM1502.24,481.259C1448.04,481.259 1401.34,457.695 1401.34,385.885L1401.34,245.676C1401.34,241.936 1404.42,239.254 1408.12,239.254L1441.42,239.254C1445.16,239.254 1448.17,241.936 1448.17,245.676L1448.17,385.885C1448.17,424.318 1465.93,442.547 1502.25,442.547C1538.67,442.547 1556.42,424.318 1556.42,385.885L1556.42,245.676C1556.42,241.936 1559.43,239.254 1563.13,239.254L1596.48,239.254C1600.22,239.254 1603.26,241.936 1603.26,245.676L1603.26,385.885C1603.24,457.685 1556.52,481.259 1502.24,481.259ZM1824.78,278.315L1757.57,278.315L1757.57,471.866C1757.51,475.568 1754.45,478.582 1750.75,478.587L1717.4,478.587C1713.72,478.571 1710.68,475.552 1710.65,471.866L1710.65,278.315L1643.39,278.315C1639.73,278.315 1636.69,276.001 1636.69,272.292L1636.69,245.676C1636.69,241.936 1639.73,239.254 1643.39,239.254L1824.77,239.254C1828.41,239.254 1831.45,241.936 1831.45,245.676L1831.45,272.292C1831.47,276.001 1828.43,278.315 1824.78,278.315ZM2282.34,478.587L2241.2,478.587C2237.5,478.587 2236.18,475.176 2234.5,471.866L2185.95,390.163L2178.43,390.163C2169.72,390.163 2142.46,389.206 2134.66,388.777L2134.66,471.866C2134.66,475.545 2131.99,478.587 2128.31,478.587L2094.65,478.587C2090.96,478.582 2087.92,475.558 2087.89,471.866L2087.89,251.051C2087.89,244.29 2091.88,241.936 2098.64,240.939C2116.15,238.236 2153.88,236.571 2178.42,236.571C2230.34,236.571 2278.24,255.109 2278.24,312.719L2278.24,315.76C2278.24,351.441 2260.36,370.967 2232.75,381.687L2285.71,471.866C2286.22,472.677 2286.46,473.631 2286.39,474.588C2286.39,476.872 2285.01,478.587 2282.34,478.587ZM2231.8,312.719C2231.8,287.449 2212.18,276.679 2178.43,276.679C2171.4,276.679 2140.74,277.347 2134.66,278.006L2134.66,351.082C2140.12,351.411 2172.8,352.099 2178.43,352.099C2213.19,352.099 2231.8,345.398 2231.8,315.76L2231.8,312.719ZM2410.93,481.409C2381.15,481.409 2350.98,476.303 2334.77,472.584C2331.44,471.906 2328.38,469.562 2328.38,465.862L2328.38,441.59C2328.38,437.91 2331.44,435.178 2334.77,435.178L2335.43,435.178C2348.94,436.873 2380.49,441.251 2411.63,441.251C2441.59,441.251 2450.76,430.521 2450.76,411.005C2450.76,385.726 2390.44,371.735 2360.99,359.608C2331.68,347.482 2321.3,324.267 2321.3,300.712C2321.3,263.626 2351.14,236.671 2413.79,236.671C2445.91,236.671 2475.32,242.774 2486.77,245.526C2490.16,246.204 2492.8,248.568 2492.8,251.918L2492.8,276.849C2492.8,280.18 2490.51,282.902 2487.08,282.902L2486.44,282.902C2464.18,280.898 2441.12,276.799 2411.83,276.799C2386.86,276.799 2368.18,285.555 2368.18,300.712C2368.18,311.801 2380.85,321.983 2395.8,327.927C2410.76,333.82 2430.38,341.449 2452.8,350.464C2481.18,361.942 2499.57,378.665 2499.57,411.005C2499.56,445.01 2478.35,481.409 2410.93,481.409ZM1912.65,412.212C1912.65,440.473 1913.7,441.211 1939.24,441.211L2024.59,441.211C2028.26,441.265 2031.25,444.285 2031.27,447.952L2031.27,469.472C2031.27,474.229 2029.57,475.914 2024.59,476.563C2013.74,478.258 1991.83,481.259 1951.76,481.259C1895.73,481.259 1866.12,481.648 1866.12,412.212L1866.12,305.609C1866.12,236.192 1895.73,236.581 1951.76,236.581C1991.83,236.581 2013.74,239.623 2024.59,241.288C2029.57,241.936 2031.27,243.651 2031.27,248.378L2031.27,269.908C2031.27,273.588 2028.21,276.689 2024.59,276.689L1939.24,276.689C1913.7,276.689 1912.65,277.437 1912.65,305.609L1912.65,336.523L2020.49,336.523C2024.23,336.523 2027.17,339.584 2027.17,343.224L2027.17,367.546C2027.18,371.224 2024.17,374.261 2020.49,374.277L1912.65,374.277L1912.65,412.212ZM540.053,227.885C530.704,237.745 514.903,238.177 505.03,228.843C500.065,224.179 497.245,217.663 497.245,210.851C497.245,204.516 499.684,198.418 504.053,193.83C508.724,188.848 515.257,186.019 522.086,186.019C528.389,186.019 534.459,188.429 539.045,192.753C548.943,202.121 549.397,217.966 540.053,227.885ZM293.09,171.562C288.199,166.985 280.418,167.209 275.799,172.061C271.226,176.939 271.45,184.707 276.297,189.313C281.19,193.896 288.98,193.662 293.589,188.794C298.16,183.923 297.935,176.161 293.09,171.562ZM355.008,148.008C348.973,142.368 339.378,142.66 333.697,148.656C331.06,151.458 329.589,155.164 329.589,159.012C329.589,163.177 331.312,167.163 334.346,170.016C340.392,175.649 349.99,175.344 355.666,169.338C361.3,163.292 361.004,153.695 355.008,148.008ZM421.423,143.151C413.765,135.969 401.566,136.324 394.338,143.939C391.227,147.448 389.508,151.979 389.508,156.669C389.508,167.194 398.169,175.855 408.694,175.855C413.771,175.855 418.646,173.84 422.241,170.256C429.428,162.588 429.06,150.372 421.423,143.151ZM484.258,159.236C480.264,155.451 474.965,153.339 469.462,153.339C463.526,153.339 457.847,155.797 453.783,160.124C450.002,164.124 447.893,169.424 447.893,174.928C447.893,180.851 450.336,186.52 454.64,190.589C463.259,198.685 477.002,198.285 485.136,189.702C493.23,181.096 492.835,167.362 484.258,159.236ZM240.597,212.807C236.951,209.405 231.162,209.576 227.723,213.186C226.116,214.873 225.219,217.115 225.219,219.445C225.219,221.944 226.252,224.336 228.072,226.05C229.755,227.661 231.997,228.562 234.326,228.562C236.831,228.562 239.226,227.521 240.936,225.691C244.371,222.062 244.218,216.251 240.597,212.807ZM557.693,437.561C553.093,442.447 553.318,450.25 558.192,454.863C560.437,456.86 563.34,457.965 566.345,457.965C573.074,457.965 578.611,452.428 578.611,445.699C578.611,442.436 577.309,439.304 574.995,437.003C570.088,432.429 562.295,432.681 557.693,437.561ZM573.35,374.457C567.734,380.5 568.043,390.08 574.038,395.748C576.832,398.394 580.537,399.87 584.386,399.87C588.546,399.87 592.525,398.145 595.368,395.109C598.01,392.322 599.484,388.625 599.484,384.785C599.484,380.62 597.75,376.637 594.7,373.799C588.652,368.152 579.039,368.448 573.35,374.457ZM568.543,308.002C565.193,311.549 563.326,316.248 563.326,321.127C563.326,326.41 565.516,331.464 569.371,335.077C572.919,338.424 577.617,340.29 582.496,340.29C587.778,340.29 592.831,338.102 596.445,334.249C599.643,330.725 601.416,326.134 601.416,321.375C601.416,310.866 592.768,302.219 582.259,302.219C577.097,302.219 572.147,304.306 568.543,308.002ZM545.348,246.414C541.583,250.412 539.485,255.701 539.485,261.193C539.485,273.02 549.218,282.753 561.045,282.753C572.872,282.753 582.605,273.02 582.605,261.193C582.605,255.237 580.137,249.54 575.793,245.466C567.197,237.309 553.535,237.778 545.348,246.414ZM524.037,492.299C520.634,495.951 520.813,501.748 524.436,505.183C526.113,506.754 528.327,507.629 530.626,507.629C533.152,507.629 535.567,506.571 537.28,504.714C538.888,503.05 539.788,500.825 539.788,498.511C539.788,496.009 538.736,493.62 536.891,491.93C535.213,490.317 532.973,489.415 530.646,489.415C528.139,489.415 525.742,490.461 524.037,492.299ZM261.01,524.15C265.252,519.567 267.611,513.547 267.611,507.302C267.611,493.696 256.416,482.501 242.81,482.501C236.066,482.501 229.604,485.252 224.93,490.115C220.897,494.655 218.668,500.521 218.668,506.593C218.668,520.204 229.868,531.404 243.479,531.404C250.05,531.404 256.36,528.793 261.01,524.15ZM207.359,280.409C209.5,278.14 210.693,275.136 210.693,272.017C210.693,265.309 205.173,259.788 198.464,259.788C195.099,259.788 191.878,261.178 189.569,263.626C184.882,268.512 185.161,276.221 190.117,280.888C194.974,285.475 202.692,285.285 207.359,280.409ZM191.643,343.543C197.29,337.501 197.012,327.898 191.025,322.193C188.257,319.713 184.668,318.341 180.952,318.341C172.669,318.341 165.854,325.157 165.854,333.439C165.854,337.45 167.452,341.3 170.293,344.131C176.323,349.797 185.934,349.532 191.643,343.543ZM196.48,409.968C203.703,402.297 203.338,390.042 195.672,382.814C188.002,375.614 175.769,375.992 168.557,383.651C161.376,391.322 161.754,403.534 169.395,410.746C177.133,418.055 189.24,417.667 196.48,409.968ZM219.635,471.576C227.734,462.967 227.333,449.225 218.748,441.101C214.763,437.339 209.486,435.241 204.007,435.241C198.069,435.241 192.39,437.704 188.332,442.039C184.532,446.037 182.411,451.347 182.411,456.864C182.411,462.779 184.851,468.441 189.15,472.504C197.791,480.55 211.499,480.133 219.635,471.576ZM471.932,546.408C474.194,548.547 477.192,549.74 480.305,549.74C483.677,549.74 486.901,548.341 489.204,545.879C491.338,543.623 492.529,540.632 492.529,537.526C492.529,534.162 491.133,530.945 488.676,528.647C486.416,526.504 483.417,525.308 480.303,525.308C476.945,525.308 473.732,526.698 471.434,529.146C466.838,534.019 467.063,541.809 471.932,546.408ZM410.015,569.932C416.098,575.666 425.631,575.288 431.345,569.264C433.99,566.475 435.465,562.775 435.465,558.932C435.465,554.787 433.749,550.821 430.727,547.984C424.677,542.312 415.036,542.609 409.347,548.642C403.72,554.677 404.021,564.262 410.015,569.932ZM343.56,574.729C351.338,582.059 363.385,581.7 370.634,574.001C374.005,570.45 375.885,565.737 375.885,560.841C375.885,555.576 373.709,550.537 369.877,546.927C362.211,539.718 349.984,540.06 342.732,547.684C339.389,551.229 337.525,555.922 337.525,560.794C337.525,566.071 339.711,571.119 343.56,574.729ZM280.855,558.734C284.842,562.505 290.127,564.608 295.615,564.608C301.542,564.608 307.212,562.156 311.27,557.836C315.024,553.843 317.117,548.563 317.117,543.082C317.117,531.267 307.394,521.544 295.579,521.544C289.639,521.544 283.956,524.001 279.887,528.328C276.139,532.311 274.05,537.579 274.05,543.049C274.05,548.991 276.516,554.674 280.855,558.734Z" style="fill:white;fill-rule:nonzero;"/>
        <path d="M444.05,218.073C441.647,226.209 434.123,231.832 425.639,231.832C423.776,231.832 421.922,231.561 420.137,231.026C411.941,228.66 406.258,221.104 406.258,212.574C406.258,210.711 406.529,208.858 407.063,207.073C409.49,198.913 417.043,193.279 425.557,193.279C436.141,193.279 444.85,201.989 444.85,212.573C444.85,214.435 444.581,216.288 444.05,218.073ZM259.135,263.616C254.108,262.217 248.808,265.125 247.288,270.118C247.093,270.885 246.994,271.674 246.994,272.466C246.994,277.691 251.293,281.99 256.517,281.99C260.612,281.99 264.269,279.349 265.557,275.463C267.133,270.447 264.141,265.171 259.135,263.616ZM292.592,226.818C291.517,226.501 290.402,226.341 289.282,226.341C284.08,226.341 279.473,229.808 278.032,234.806C277.709,235.892 277.544,237.02 277.544,238.154C277.544,243.35 281.001,247.955 285.99,249.405C292.184,251.197 298.759,247.606 300.6,241.427C302.378,235.226 298.776,228.655 292.592,226.818ZM335.462,200.88C327.597,198.61 319.247,203.147 316.874,210.982C314.607,218.858 319.193,227.209 327.056,229.521C328.436,229.933 329.869,230.143 331.31,230.143C337.908,230.143 343.753,225.748 345.584,219.409C347.805,211.557 343.269,203.255 335.462,200.88ZM382.94,190.26C381.381,189.793 379.762,189.556 378.135,189.556C370.706,189.556 364.124,194.496 362.048,201.628C361.586,203.18 361.352,204.79 361.352,206.409C361.352,213.831 366.283,220.409 373.407,222.49C382.237,225.07 391.63,219.958 394.259,211.142C394.731,209.575 394.971,207.948 394.971,206.312C394.971,198.904 390.05,192.338 382.94,190.26ZM237.984,309.169C237.333,308.976 236.658,308.878 235.98,308.878C232.856,308.878 230.089,310.956 229.218,313.955C229.015,314.627 228.912,315.325 228.912,316.026C228.912,319.165 230.981,321.952 233.985,322.861C237.795,323.958 241.724,321.764 242.83,317.994C243.022,317.344 243.119,316.669 243.119,315.992C243.119,312.837 241.016,310.042 237.984,309.169ZM526.052,351.99C525.789,352.869 525.656,353.781 525.656,354.698C525.656,358.914 528.47,362.647 532.524,363.807C533.396,364.063 534.301,364.194 535.211,364.194C540.435,364.194 544.733,359.896 544.733,354.672C544.733,350.461 541.939,346.726 537.899,345.538C532.88,344.072 527.543,346.979 526.052,351.99ZM515.042,304.372C514.714,305.467 514.547,306.604 514.547,307.747C514.547,312.957 518.016,317.573 523.02,319.021C529.303,320.876 535.784,317.286 537.619,311.044C539.454,304.801 535.914,298.289 529.681,296.494C528.583,296.164 527.442,295.996 526.296,295.996C521.121,295.996 516.527,299.415 515.042,304.372ZM489.114,261.541C488.715,262.905 488.512,264.319 488.512,265.74C488.512,273.929 495.25,280.667 503.44,280.667C510.048,280.667 515.906,276.279 517.765,269.938C518.172,268.568 518.378,267.147 518.378,265.717C518.378,259.122 513.975,253.283 507.633,251.47C499.795,249.206 491.474,253.732 489.114,261.541ZM452.626,228.274C452.181,229.802 451.955,231.385 451.955,232.976C451.955,242.19 459.537,249.773 468.751,249.773C476.195,249.773 482.792,244.824 484.876,237.678C485.339,236.126 485.574,234.516 485.574,232.897C485.574,225.486 480.651,218.916 473.538,216.836C464.665,214.243 455.229,219.404 452.626,228.274ZM522.192,400.056C521.13,403.783 523.267,407.732 526.969,408.881C527.628,409.079 528.313,409.18 529.002,409.18C532.15,409.18 534.936,407.074 535.794,404.045C535.995,403.381 536.097,402.692 536.097,401.999C536.097,398.863 534.01,396.084 530.998,395.209C527.256,394.159 523.307,396.333 522.192,400.056ZM358.01,510.987C358.538,509.204 358.807,507.354 358.807,505.495C358.807,496.938 353.12,489.353 344.906,486.954C343.139,486.434 341.307,486.17 339.465,486.17C330.927,486.17 323.359,491.842 320.963,500.037C320.436,501.816 320.169,503.662 320.169,505.517C320.169,514.072 325.854,521.654 334.066,524.05C344.298,527.012 355.098,521.128 358.01,510.987ZM238.971,366.01C240.456,361.002 237.557,355.659 232.549,354.173C227.52,352.749 222.201,355.654 220.682,360.655C220.431,361.518 220.303,362.411 220.303,363.309C220.303,367.524 223.113,371.257 227.164,372.423C228.049,372.69 228.969,372.825 229.893,372.825C234.086,372.825 237.801,370.036 238.971,366.01ZM250.001,413.598C250.322,412.521 250.485,411.404 250.485,410.28C250.485,405.112 247.033,400.537 242.063,399.118C240.945,398.769 239.78,398.591 238.609,398.591C233.442,398.591 228.872,402.052 227.473,407.026C227.162,408.094 227.004,409.2 227.004,410.312C227.004,416.749 232.3,422.045 238.737,422.045C243.936,422.045 248.544,418.589 250.001,413.598ZM275.968,456.488C278.228,448.588 273.649,440.218 265.777,437.86C257.909,435.595 249.567,440.184 247.268,448.042C246.858,449.419 246.65,450.848 246.65,452.285C246.65,458.881 251.037,464.727 257.37,466.57C258.758,466.986 260.2,467.197 261.649,467.197C268.249,467.197 274.102,462.819 275.968,456.488ZM312.457,489.806C315.017,480.942 309.852,471.539 300.998,468.944C299.465,468.491 297.873,468.261 296.274,468.261C288.834,468.261 282.25,473.235 280.216,480.392C279.764,481.928 279.534,483.521 279.534,485.122C279.534,492.535 284.459,499.105 291.575,501.184C300.42,503.751 309.818,498.631 312.457,489.806ZM505.858,454.354C510.888,455.847 516.255,452.94 517.755,447.912C519.192,442.894 516.297,437.574 511.303,436.055C506.286,434.62 500.971,437.522 499.466,442.517C497.996,447.516 500.872,452.842 505.858,454.354ZM472.461,491.202C478.618,493.018 485.179,489.449 487,483.294C487.339,482.186 487.511,481.033 487.511,479.875C487.511,474.698 484.078,470.108 479.112,468.645C472.905,466.824 466.295,470.407 464.433,476.602C462.697,482.803 466.295,489.346 472.461,491.202ZM429.59,517.149C430.972,517.561 432.406,517.77 433.848,517.77C440.466,517.77 446.328,513.364 448.169,507.008C448.566,505.648 448.768,504.239 448.768,502.823C448.768,496.219 444.377,490.366 438.037,488.519C436.665,488.115 435.243,487.909 433.813,487.909C425.626,487.909 418.888,494.647 418.888,502.834C418.888,509.432 423.263,515.283 429.59,517.149ZM382.152,527.73C383.725,528.21 385.361,528.454 387.006,528.454C394.391,528.454 400.933,523.536 402.984,516.441C403.435,514.905 403.664,513.311 403.664,511.71C403.664,502.488 396.076,494.9 386.854,494.9C379.415,494.9 372.818,499.839 370.724,506.978C368.191,515.803 373.34,525.153 382.152,527.73Z" style="fill:white;fill-rule:nonzero;"/>
        <path d="M342.852,253.893C346.741,261.143 344.098,270.237 336.819,274.166C329.556,278.064 320.372,275.302 316.465,268.043C312.476,260.804 315.229,251.689 322.489,247.78C324.683,246.588 327.14,245.964 329.636,245.964C335.16,245.964 340.252,249.019 342.852,253.893ZM268.768,371.186C264.541,373.536 262.957,378.918 265.238,383.183C266.744,386.007 269.694,387.777 272.894,387.777C274.391,387.777 275.862,387.39 277.165,386.653C280.04,385.173 281.854,382.199 281.854,378.965C281.854,377.488 281.476,376.035 280.755,374.746C278.427,370.501 273.036,368.9 268.768,371.186ZM267.272,335.126C262.367,337.816 260.515,344.045 263.154,348.978C265.916,354.044 272.119,355.869 277.135,353.196C282.091,350.484 283.986,344.151 281.303,339.235C279.514,335.913 276.033,333.834 272.26,333.834C270.515,333.834 268.798,334.279 267.272,335.127L267.272,335.126ZM276.626,300.423C270.974,303.502 268.804,310.647 271.79,316.349C274.931,322.023 282.061,324.217 287.745,321.116C291.57,319.072 293.967,315.073 293.967,310.737C293.967,308.79 293.484,306.874 292.562,305.16C289.456,299.53 282.304,297.404 276.626,300.423ZM295.713,270.407C291.401,272.693 288.694,277.191 288.694,282.072C288.694,284.29 289.253,286.472 290.318,288.417C293.808,294.789 301.726,297.212 308.149,293.732C312.469,291.465 315.185,286.972 315.185,282.093C315.185,279.91 314.642,277.762 313.603,275.842C311.324,271.535 306.833,268.831 301.961,268.831C299.78,268.831 297.633,269.373 295.713,270.407ZM281.104,405.331C278.716,406.616 277.221,409.118 277.221,411.829C277.221,413.064 277.531,414.279 278.122,415.363C280.082,418.891 284.561,420.229 288.134,418.355C291.659,416.37 292.968,411.867 291.056,408.303C289.117,404.786 284.654,403.453 281.104,405.331ZM451.569,282.533C453.922,286.775 459.296,288.4 463.606,286.173C467.853,283.817 469.457,278.419 467.186,274.126C465.661,271.277 462.68,269.491 459.448,269.491C457.977,269.491 456.529,269.861 455.239,270.566C452.349,272.098 450.535,275.112 450.535,278.382C450.535,279.83 450.89,281.255 451.569,282.533ZM421.622,263.476C424.325,268.482 430.687,270.307 435.534,267.585C440.649,264.872 442.474,258.65 439.742,253.663C437.083,248.715 430.838,246.812 425.871,249.435C420.892,252.155 418.987,258.453 421.622,263.476ZM387.019,254.202C389.03,257.98 392.976,260.349 397.256,260.349C399.206,260.349 401.125,259.857 402.835,258.919C406.666,256.886 409.07,252.888 409.07,248.551C409.07,246.611 408.59,244.702 407.671,242.993C405.651,239.21 401.695,236.838 397.406,236.838C395.433,236.838 393.492,237.34 391.766,238.296C387.974,240.337 385.601,244.309 385.601,248.614C385.601,250.566 386.088,252.487 387.019,254.202ZM350.889,255.628C353.192,259.94 357.7,262.643 362.589,262.643C364.773,262.643 366.924,262.104 368.849,261.073C375.208,257.562 377.6,249.478 374.175,243.073C371.812,238.991 367.438,236.469 362.722,236.469C355.462,236.469 349.488,242.442 349.488,249.702C349.488,251.759 349.968,253.788 350.889,255.628ZM474.066,309.528C475.961,313.108 480.449,314.404 483.919,312.49C486.307,311.249 487.812,308.773 487.812,306.082C487.812,304.867 487.505,303.672 486.921,302.607C485.018,299.031 480.532,297.625 476.928,299.476C473.508,301.46 472.082,306.028 474.066,309.528ZM448.637,449.817C446.056,444.93 440.964,441.861 435.437,441.861C432.918,441.861 430.44,442.499 428.234,443.714C423.402,446.294 420.373,451.344 420.373,456.822C420.373,459.331 421.009,461.8 422.221,463.998C426.17,471.257 435.284,473.91 442.584,470.081C449.834,466.072 452.536,456.927 448.637,449.817ZM313.454,435.278C311.128,431.071 305.786,429.48 301.537,431.727C298.688,433.252 296.903,436.233 296.903,439.464C296.903,440.92 297.265,442.353 297.957,443.634C299.448,446.485 302.41,448.278 305.627,448.278C307.114,448.278 308.577,447.894 309.874,447.164C312.72,445.641 314.503,442.664 314.503,439.436C314.503,437.985 314.142,436.555 313.454,435.278ZM343.44,454.344C340.746,449.409 334.476,447.553 329.529,450.226C326.191,451.976 324.093,455.447 324.093,459.216C324.093,460.942 324.532,462.639 325.371,464.147C327.963,469.163 334.256,471.078 339.242,468.385C344.198,465.645 346.078,459.355 343.44,454.344ZM378.124,463.619C375.102,457.924 367.892,455.9 362.108,458.852C356.469,461.955 354.337,469.115 357.361,474.797C360.493,480.551 367.623,482.675 373.327,479.604C377.162,477.583 379.571,473.59 379.571,469.255C379.571,467.285 379.073,465.345 378.124,463.619ZM414.203,462.173C410.73,455.791 402.637,453.374 396.233,456.808C389.771,460.228 387.527,468.236 391.038,474.748C393.273,479.011 397.706,481.692 402.52,481.692C404.735,481.692 406.914,481.124 408.848,480.043C415.33,476.652 417.634,468.565 414.203,462.173ZM496.175,346.754C500.513,344.261 502.168,338.876 499.904,334.658C498.368,331.82 495.389,330.045 492.161,330.045C490.697,330.045 489.255,330.41 487.968,331.108C485.082,332.612 483.266,335.608 483.266,338.862C483.266,340.343 483.641,341.799 484.358,343.094C486.629,347.301 491.924,348.941 496.175,346.754ZM497.83,382.754C502.836,380.031 504.631,373.779 501.909,368.813C500.133,365.492 496.661,363.411 492.895,363.411C491.195,363.411 489.522,363.835 488.027,364.644C483.072,367.374 481.179,373.651 483.799,378.665C486.452,383.582 492.894,385.396 497.83,382.754ZM488.406,417.427C494.25,414.286 496.284,407.226 493.303,401.452C490.221,395.777 483.029,393.625 477.337,396.675C471.654,399.774 469.493,406.974 472.531,412.69C475.617,418.308 482.746,420.435 488.406,417.427ZM469.449,447.314C475.871,443.983 478.245,435.816 474.764,429.444C471.234,423.042 463.256,420.559 456.864,424.089C452.595,426.394 449.925,430.872 449.925,435.724C449.925,437.922 450.473,440.086 451.519,442.019C453.792,446.287 458.25,448.963 463.085,448.963C465.312,448.963 467.503,448.396 469.449,447.314Z" style="fill:white;fill-rule:nonzero;"/>
        <path d="M726.025,397.443C704.932,397.416 687.595,380.043 687.612,358.95C687.612,358.93 687.611,358.91 687.611,358.89C687.611,337.856 704.92,320.547 725.955,320.547L726.144,320.547C747.19,320.547 764.507,337.865 764.507,358.91L764.507,358.99C764.496,380.092 747.126,397.448 726.025,397.443ZM575.065,65.807C575.38,64.345 575.538,62.854 575.538,61.359C575.538,51.39 568.487,42.71 558.731,40.667C557.253,40.345 555.746,40.183 554.235,40.183C544.281,40.183 535.61,47.213 533.551,56.951C533.24,58.407 533.084,59.891 533.084,61.379C533.084,73.022 542.665,82.603 554.308,82.603C564.287,82.603 572.983,75.566 575.065,65.807ZM650.834,120.056C651.048,118.716 651.156,117.361 651.156,116.004C651.156,103.427 641.908,92.611 629.483,90.657C628.339,90.503 627.186,90.425 626.031,90.425C611.917,90.425 600.303,102.039 600.303,116.153C600.303,128.536 609.243,139.249 621.426,141.466C635.361,143.639 648.622,133.984 650.834,120.056ZM749.738,271.883C749.772,271.253 749.789,270.623 749.789,269.993C749.789,251.316 734.955,235.711 716.302,234.766C715.656,234.73 715.009,234.713 714.362,234.713C695.695,234.713 680.098,249.54 679.155,268.183C679.111,268.904 679.089,269.626 679.089,270.348C679.089,289.736 695.042,305.69 714.43,305.69C733.24,305.69 748.922,290.674 749.738,271.883ZM397.948,15.417C397.948,6.851 391.018,0 382.481,0C374.228,0.297 367.599,7.168 367.599,15.427C367.599,23.686 374.228,30.557 382.481,30.854C391.018,30.854 397.948,23.963 397.948,15.417ZM549.905,635.849C540.132,637.927 533.081,646.634 533.081,656.626C533.081,668.279 542.67,677.868 554.323,677.868C555.808,677.868 557.288,677.712 558.741,677.403C568.514,675.325 575.564,666.618 575.564,656.626C575.564,644.973 565.976,635.384 554.323,635.384C552.838,635.384 551.357,635.54 549.905,635.849ZM621.426,576.554C608.87,578.407 599.471,589.295 599.471,601.987C599.471,616.09 611.076,627.695 625.179,627.695C626.601,627.695 628.021,627.577 629.424,627.343C641.76,625.278 650.888,614.495 650.888,601.987C650.888,587.884 639.283,576.279 625.179,576.279C623.923,576.279 622.669,576.371 621.426,576.554ZM676.662,498.91C660.437,500.617 647.976,514.457 647.976,530.772C647.976,548.346 662.438,562.808 680.013,562.808C681.132,562.808 682.25,562.75 683.363,562.633C699.588,560.96 712.065,547.131 712.065,530.82C712.065,529.685 712.005,528.55 711.884,527.421C710.039,509.942 694.142,497.074 676.662,498.91ZM712.542,412.641C693.21,413.696 678.154,430.442 679.155,449.777C680.093,468.419 695.687,483.248 714.352,483.248C715.003,483.248 715.653,483.23 716.302,483.194C734.951,482.244 749.779,466.641 749.779,447.968C749.779,447.337 749.762,446.707 749.729,446.077C748.679,426.715 731.906,411.634 712.542,412.641ZM382.481,687.136C374.164,687.347 367.437,694.248 367.437,702.568C367.437,710.888 374.164,717.789 382.481,718C390.947,718 397.914,711.034 397.914,702.568C397.914,694.102 390.947,687.136 382.481,687.136ZM38.918,397.443C60.001,397.399 77.323,380.033 77.312,358.95L77.312,358.89C77.312,337.856 60.003,320.547 38.968,320.547L38.869,320.547C17.785,320.547 0.436,337.896 0.436,358.98L0.436,359C0.479,380.088 17.831,397.421 38.918,397.443ZM215.058,82.121C226.45,79.7 233.833,68.334 231.412,56.941C229.35,47.195 220.672,40.16 210.709,40.16C209.208,40.16 207.71,40.32 206.242,40.637C196.484,42.71 189.445,51.403 189.445,61.379C189.445,73.012 199.017,82.584 210.65,82.584C212.132,82.584 213.609,82.429 215.058,82.121ZM143.557,141.446C157.499,139.23 167.155,125.943 164.957,111.998C162.992,99.569 152.168,90.322 139.584,90.322C138.22,90.322 136.857,90.431 135.509,90.647C123.089,92.606 113.847,103.419 113.847,115.993C113.847,117.35 113.955,118.705 114.169,120.046C116.361,133.976 129.626,143.636 143.557,141.446ZM88.281,219.07C104.188,217.01 116.224,203.314 116.224,187.275C116.224,169.687 101.752,155.214 84.164,155.214C83.305,155.214 82.446,155.248 81.59,155.317C65.368,156.993 52.895,170.821 52.895,187.129C52.895,188.275 52.956,189.42 53.079,190.559C54.772,206.781 68.607,219.247 84.917,219.247C86.041,219.247 87.164,219.188 88.281,219.07ZM52.401,305.329C71.76,304.301 86.849,287.533 85.838,268.173C84.89,249.522 69.286,234.691 50.611,234.691C49.954,234.691 49.297,234.709 48.641,234.746C29.988,235.712 15.165,251.323 15.165,270.001C15.165,270.625 15.181,271.249 15.215,271.873C16.243,291.247 33.026,306.347 52.401,305.329ZM189.908,652.183C189.6,653.634 189.444,655.113 189.444,656.596C189.444,668.238 199.024,677.817 210.665,677.817C220.648,677.817 229.346,670.773 231.422,661.009C233.831,649.62 226.453,638.265 215.068,635.839C203.688,633.447 192.348,640.813 189.908,652.183ZM114.179,597.915C113.961,599.266 113.851,600.633 113.851,602.002C113.851,614.572 123.1,625.38 135.519,627.323C136.856,627.535 138.206,627.642 139.559,627.642C153.657,627.642 165.258,616.041 165.258,601.944C165.258,587.846 153.657,576.245 139.559,576.245C126.976,576.245 116.152,585.487 114.179,597.915ZM53.079,527.441C52.957,528.576 52.896,529.717 52.896,530.859C52.896,547.158 65.367,560.976 81.58,562.643C82.71,562.764 83.846,562.824 84.982,562.824C101.287,562.824 115.115,550.359 116.802,534.142C116.918,533.031 116.977,531.914 116.977,530.796C116.977,514.472 104.506,500.624 88.271,498.92C87.151,498.802 86.026,498.742 84.9,498.742C68.589,498.742 54.758,511.217 53.079,527.441ZM15.215,446.067C15.181,446.697 15.164,447.327 15.164,447.958C15.164,466.631 29.992,482.234 48.641,483.184C49.307,483.222 49.974,483.241 50.64,483.241C69.307,483.241 84.901,468.41 85.838,449.767C86.832,430.416 71.75,413.665 52.401,412.631C33.042,411.641 16.28,426.713 15.215,446.067ZM467.106,674.85C458.323,677.214 453.03,686.374 455.368,695.164C457.736,703.941 466.902,709.219 475.682,706.861C482.927,704.95 488.014,698.347 488.014,690.855C488.014,689.407 487.824,687.966 487.449,686.568C485.081,677.775 475.9,672.486 467.106,674.85ZM297.837,674.85C296.548,674.535 295.226,674.376 293.899,674.376C284.807,674.376 277.325,681.857 277.325,690.949C277.325,698.295 282.209,704.805 289.261,706.861C290.768,707.3 292.33,707.523 293.899,707.523C302.991,707.523 310.473,700.041 310.473,690.949C310.473,683.338 305.23,676.659 297.837,674.85ZM487.459,31.422C487.831,30.029 488.019,28.594 488.019,27.152C488.019,19.654 482.931,13.046 475.682,11.129C474.501,10.867 473.295,10.734 472.085,10.734C462.987,10.734 455.501,18.22 455.501,27.318C455.501,34.543 460.223,40.975 467.116,43.14C468.526,43.521 469.98,43.714 471.44,43.714C478.923,43.714 485.522,38.65 487.459,31.422ZM309.604,22.816C307.667,15.602 301.078,10.549 293.607,10.549C292.139,10.549 290.678,10.744 289.261,11.129C282.033,13.048 276.962,19.641 276.962,27.119C276.962,28.562 277.151,29.999 277.524,31.393C279.459,38.633 286.069,43.708 293.564,43.708C302.673,43.708 310.168,36.213 310.168,27.104C310.168,25.657 309.978,24.215 309.604,22.816Z" style="fill:white;fill-rule:nonzero;"/>
        <path d="M640.692,280.349C625.558,286.855 607.75,279.762 601.232,264.633C599.611,260.879 598.775,256.833 598.775,252.744C598.775,240.772 605.944,229.899 616.948,225.183C620.533,223.729 624.366,222.982 628.234,222.982C644.711,222.982 658.27,236.541 658.27,253.018C658.27,264.764 651.38,275.477 640.692,280.349ZM429.889,89.271C428.379,81.556 421.555,75.938 413.693,75.938C412.592,75.938 411.493,76.049 410.414,76.268C402.694,77.769 397.069,84.594 397.069,92.458C397.069,93.561 397.18,94.662 397.4,95.743C399.156,103.203 405.869,108.519 413.533,108.519C422.625,108.519 430.107,101.037 430.107,91.945C430.107,91.05 430.034,90.155 429.889,89.271ZM501.001,104.738C498.761,95.885 490.731,89.634 481.599,89.634C479.912,89.634 478.232,89.847 476.599,90.269C467.737,92.498 461.474,100.53 461.474,109.669C461.474,111.356 461.688,113.037 462.11,114.671C464.372,123.528 472.414,129.774 481.556,129.774C492.566,129.774 501.625,120.714 501.625,109.704C501.625,108.029 501.416,106.361 501.001,104.738ZM566.569,136.38C563.345,125.963 553.647,118.812 542.743,118.812C540.2,118.812 537.671,119.201 535.246,119.966C524.817,123.197 517.658,132.909 517.658,143.827C517.658,146.361 518.044,148.881 518.802,151.299C522.257,161.398 531.81,168.226 542.484,168.226C556.215,168.226 567.515,156.927 567.515,143.196C567.515,140.891 567.196,138.598 566.569,136.38ZM618.863,182.99C614.88,172.192 604.531,164.979 593.022,164.979C589.744,164.979 586.493,165.563 583.422,166.706C572.607,170.669 565.375,181.021 565.375,192.539C565.375,195.819 565.962,199.073 567.107,202.147C571.106,212.95 581.466,220.162 592.985,220.162C608.123,220.162 620.579,207.706 620.579,192.569C620.579,189.299 619.998,186.056 618.863,182.99ZM287.346,107.909C285.447,103.499 281.084,100.628 276.283,100.628C274.631,100.628 272.996,100.968 271.481,101.627C267.075,103.528 264.208,107.888 264.208,112.686C264.208,119.294 269.645,124.731 276.252,124.731C277.893,124.731 279.517,124.395 281.024,123.745C287.137,121.113 289.989,114.012 287.346,107.909ZM588.129,505.731C583.924,508.858 581.441,513.799 581.441,519.039C581.441,528.136 588.927,535.622 598.025,535.622C601.336,535.622 604.572,534.631 607.315,532.776C611.688,529.674 614.292,524.635 614.292,519.274C614.292,515.828 613.216,512.466 611.214,509.66C608.113,505.284 603.071,502.678 597.708,502.678C594.276,502.678 590.928,503.745 588.129,505.731ZM621.077,441.091C615.078,444.725 611.403,451.248 611.403,458.261C611.403,469.274 620.465,478.335 631.477,478.335C635.401,478.335 639.24,477.185 642.517,475.027C648.151,471.317 651.551,465.007 651.551,458.261C651.551,447.249 642.489,438.187 631.477,438.187C627.81,438.187 624.213,439.192 621.077,441.091ZM636.663,368.354C624.698,375.091 620.383,390.472 627.1,402.449C631.516,410.306 639.855,415.185 648.868,415.185C653.174,415.185 657.407,414.071 661.155,411.953C669.044,407.557 673.95,399.205 673.95,390.175C673.95,385.88 672.84,381.657 670.729,377.917C666.314,370.036 657.958,365.139 648.925,365.139C644.63,365.139 640.406,366.246 636.663,368.354ZM635.716,295.417C622.183,302.14 616.561,318.794 623.251,332.344C627.874,341.74 637.475,347.716 647.947,347.716C652.213,347.716 656.421,346.725 660.238,344.82C669.623,340.201 675.592,330.611 675.592,320.151C675.592,315.893 674.603,311.693 672.703,307.882C665.967,294.328 649.282,288.705 635.716,295.417ZM483.949,594.275C479.541,596.176 476.671,600.538 476.671,605.339C476.671,611.949 482.111,617.388 488.721,617.388C490.362,617.388 491.985,617.053 493.492,616.403C499.605,613.77 502.457,606.68 499.825,600.547C497.188,594.475 490.024,591.644 483.949,594.275ZM148.054,492.807C163.165,486.259 170.216,468.443 163.681,453.327C158.966,442.356 148.118,435.21 136.176,435.21C132.088,435.21 128.043,436.048 124.291,437.671C113.29,442.385 106.122,453.255 106.122,465.224C106.122,469.316 106.96,473.365 108.584,477.121C115.118,492.24 132.925,499.317 148.054,492.807ZM176.834,212.269C181.215,209.17 183.825,204.127 183.825,198.762C183.825,195.338 182.762,191.997 180.783,189.203C177.701,184.804 172.655,182.178 167.283,182.178C163.85,182.178 160.502,183.25 157.708,185.244C153.307,188.333 150.682,193.384 150.682,198.76C150.682,202.202 151.758,205.559 153.759,208.36C159.024,215.75 169.429,217.512 176.834,212.269ZM143.916,276.899C149.734,273.22 153.272,266.798 153.272,259.915C153.272,256.105 152.188,252.373 150.149,249.156C146.472,243.358 140.067,239.834 133.201,239.834C122.192,239.834 113.134,248.893 113.134,259.901C113.134,263.706 114.216,267.433 116.253,270.646C122.126,279.949 134.613,282.771 143.916,276.899ZM128.28,349.646C136.5,345.33 141.669,336.779 141.669,327.493C141.669,313.768 130.374,302.473 116.649,302.473C112.115,302.473 107.666,303.705 103.778,306.038C95.947,310.471 91.091,318.802 91.091,327.801C91.091,341.521 102.381,352.811 116.101,352.811C120.364,352.811 124.556,351.722 128.28,349.646ZM129.247,422.603C142.808,415.879 148.435,399.187 141.712,385.626C137.095,376.229 127.497,370.251 117.027,370.251C112.753,370.251 108.537,371.247 104.715,373.161C95.33,377.799 89.365,387.401 89.365,397.871C89.365,402.116 90.345,406.304 92.23,410.108C98.963,423.681 115.665,429.319 129.247,422.603ZM335.074,628.769C336.613,636.502 343.463,642.122 351.348,642.122C352.436,642.122 353.522,642.015 354.589,641.802C363.507,639.987 369.361,631.17 367.573,622.247C365.762,613.349 356.975,607.5 348.067,609.263C339.16,611.059 333.3,619.856 335.074,628.769ZM264.002,613.262C266.236,622.123 274.27,628.382 283.408,628.382C285.09,628.382 286.765,628.17 288.394,627.751C297.246,625.49 303.488,617.452 303.488,608.316C303.488,597.311 294.432,588.255 283.427,588.255C281.752,588.255 280.084,588.465 278.461,588.88C269.615,591.139 263.378,599.17 263.378,608.3C263.378,609.974 263.587,611.64 264.002,613.262ZM198.414,581.61C201.613,592.028 211.301,599.187 222.199,599.187C224.75,599.187 227.285,598.795 229.717,598.024C240.153,594.809 247.322,585.099 247.322,574.179C247.322,571.65 246.937,569.135 246.181,566.721C242.072,553.618 227.918,546.209 214.809,550.297C204.402,553.527 197.262,563.22 197.262,574.116C197.262,576.658 197.65,579.185 198.414,581.61ZM146.1,534.97C150.06,545.777 160.405,553.005 171.915,553.005C175.202,553.005 178.462,552.415 181.541,551.264C192.073,547.126 199.037,536.908 199.037,525.592C199.037,510.46 186.586,498.009 171.454,498.009C168.38,498.009 165.329,498.522 162.424,499.529C148.238,504.786 140.875,520.771 146.1,534.97ZM540.81,559.292C537.901,561.75 536.22,565.371 536.22,569.18C536.22,576.281 542.063,582.124 549.164,582.124C551.941,582.124 554.645,581.23 556.876,579.576C560.165,577.136 562.108,573.275 562.108,569.18C562.108,562.079 556.265,556.236 549.164,556.236C546.107,556.236 543.146,557.319 540.81,559.292ZM419.458,611.606C412.441,612.666 407.526,619.293 408.549,626.315C409.471,632.637 414.949,637.374 421.338,637.374C421.97,637.374 422.602,637.328 423.228,637.235C429.567,636.325 434.324,630.837 434.324,624.432C434.324,623.804 434.279,623.177 434.187,622.556C433.261,616.216 427.767,611.466 421.36,611.466C420.723,611.466 420.088,611.513 419.458,611.606ZM356.464,91.695C355.536,85.374 350.056,80.64 343.667,80.64C343.02,80.64 342.375,80.688 341.735,80.785C335.415,81.716 330.682,87.196 330.682,93.584C330.682,100.682 336.523,106.522 343.62,106.522C344.251,106.522 344.88,106.476 345.504,106.384C352.538,105.358 357.484,98.729 356.464,91.695ZM226.287,140.529C221.865,134.967 213.66,134.009 208.077,138.404C204.971,140.862 203.156,144.611 203.156,148.572C203.156,155.684 209.008,161.536 216.12,161.536C223.232,161.536 229.084,155.684 229.084,148.572C229.084,145.653 228.098,142.818 226.287,140.529Z" style="fill:white;fill-rule:nonzero;"/>
    </g>
</svg>
